<?xml version="1.0" encoding="UTF-8" standalone="no"?>
<!DOCTYPE svg PUBLIC "-//W3C//DTD SVG 1.1//EN" "http://www.w3.org/Graphics/SVG/1.1/DTD/svg11.dtd">
<svg width="100%" height="100%" viewBox="0 0 238 355" version="1.1" xmlns="http://www.w3.org/2000/svg" xmlns:xlink="http://www.w3.org/1999/xlink" xml:space="preserve" xmlns:serif="http://www.serif.com/" style="fill-rule:evenodd;clip-rule:evenodd;stroke-linejoin:round;stroke-miterlimit:2;">
    <g id="g218" transform="matrix(1,0,0,1,-174.284,-274.18)">
        <g id="path208" transform="matrix(1,0,0,1,-3.18898e-06,0)">
            <path d="M213.559,515.083L174.39,515.083L174.39,629.133L214.421,629.133L214.421,613.725L191.237,613.725L191.237,577.725L206.933,577.725L206.933,560.877L191.237,560.877L191.237,530.347L213.557,530.347L213.559,515.083Z" style="fill:rgb(63,62,131);fill-rule:nonzero;"/>
        </g>
        <g id="path210" transform="matrix(1,0,0,1,-3.18898e-06,0)">
            <path d="M251.875,551.792C251.875,560.72 247.699,564.464 242.227,564.464L238.771,564.464L238.771,530.335L242.227,530.335C247.555,530.335 251.875,533.935 251.875,543.151L251.875,551.792ZM259.651,574.256C265.123,569.504 268.291,561.44 268.291,549.92L268.291,545.024C268.291,524.288 258.643,515.073 242.227,515.073L221.923,515.073L221.923,629.122L238.771,629.122L238.771,579.873L243.523,579.873L252.883,629.122L270.163,629.122L259.651,574.256Z" style="fill:rgb(63,62,131);fill-rule:nonzero;"/>
        </g>
        <g id="path212" transform="matrix(1,0,0,1,-3.18898e-06,0)">
            <path d="M279.578,515.083L279.578,629.133L295.706,629.133L295.706,565.773L316.73,629.133L329.69,629.133L329.69,515.083L314.57,515.083L314.57,570.668L295.562,515.083L279.578,515.083Z" style="fill:rgb(63,62,131);fill-rule:nonzero;"/>
        </g>
        <g id="path214" transform="matrix(1,0,0,1,-3.18898e-06,0)">
            <rect x="342.028" y="515.083" width="16.848" height="114.049" style="fill:rgb(63,62,131);fill-rule:nonzero;"/>
        </g>
        <g id="path216" transform="matrix(1,0,0,1,-3.18898e-06,0)">
            <path d="M410.428,515.083L371.259,515.083L371.259,629.133L411.29,629.133L411.29,613.725L388.106,613.725L388.106,577.725L403.802,577.725L403.802,560.877L388.106,560.877L388.106,530.347L410.426,530.347L410.428,515.083Z" style="fill:rgb(63,62,131);fill-rule:nonzero;"/>
        </g>
        <g transform="matrix(1,0,0,1,174.284,274.18)">
            <path d="M189.289,119.805L189.862,123.149L226.011,123.149L225.563,119.805L189.289,119.805" style="fill:white;"/>
        </g>
        <g transform="matrix(1,0,0,1,174.284,274.18)">
            <path d="M195.56,163.294L231.775,163.294L232.079,166.639L196.149,166.643L195.56,163.294Z" style="fill:white;"/>
        </g>
        <g transform="matrix(1,0,0,1,174.284,274.18)">
            <path d="M10.548,119.805L10.1,123.149L46.247,123.153L46.822,119.805L10.548,119.805Z" style="fill:white;"/>
        </g>
        <g transform="matrix(1,0,0,1,174.284,274.18)">
            <path d="M4.33,163.294L4.042,166.643L39.972,166.643L40.545,163.294L4.33,163.294Z" style="fill:white;"/>
        </g>
        <g transform="matrix(1,0,0,1,174.284,274.18)">
            <path d="M59.618,119.802L59.827,123.153L176.284,123.153L176.493,119.802L59.618,119.802Z" style="fill:white;"/>
        </g>
        <g transform="matrix(1,0,0,1,174.284,274.18)">
            <path d="M57.726,163.29L57.353,166.643L178.758,166.639L178.385,163.29L57.726,163.29Z" style="fill:white;"/>
        </g>
        <g transform="matrix(1,0,0,1,174.284,274.18)">
            <path d="M53.337,206.78L52.967,210.129L183.144,210.129L182.774,206.78L53.337,206.78Z" style="fill:white;"/>
        </g>
        <g transform="matrix(1,0,0,1,174.284,274.18)">
            <path d="M18.821,76.312L18.219,79.661L217.892,79.661L217.29,76.312L18.821,76.312Z" style="fill:white;"/>
        </g>
        <g transform="matrix(1,0,0,1,174.284,274.18)">
            <path d="M33.304,32.824L31.278,36.194L204.833,36.194L202.807,32.824L33.304,32.824Z" style="fill:white;"/>
        </g>
    </g>
    <g id="_-c4000cff" serif:id="#c4000cff" transform="matrix(0.073761,0,0,0.073761,-18.3733,-13.8022)">
        <path d="M1415.7,185.663L1417.91,185.663C1414.5,200.548 1413,215.858 1413,231.425C1413,268.547 1421.52,304.21 1437.6,337.21L1224.57,337.323C1155.37,337.124 1086.18,337.776 1016.99,336.954C1070.42,314.872 1125.27,296.419 1178.84,274.819L1415.7,185.545L1415.7,185.663Z" style="fill:rgb(196,0,12);"/>
        <path d="M2284.42,185.663L2398.9,228.841C2447.94,248.173 2497.78,265.465 2546.59,285.335C2591.94,302.145 2637.41,318.728 2682.23,336.954C2549.74,337.805 2417.22,337.068 2284.72,337.323L2259.74,337.301C2275.85,304.278 2284.38,268.582 2284.38,231.425C2284.38,215.858 2282.89,200.548 2279.47,185.663L2284.42,185.663Z" style="fill:rgb(196,0,12);"/>
        <path id="path224" d="M673.143,677.82C1022.29,677.055 1371.46,677.707 1720.6,677.48L2667.4,677.48C2786.97,677.707 2906.5,677.055 3026.07,677.82C3041.55,704.381 3048.01,734.74 3057.45,763.71C3074.68,818.135 3092.12,872.532 3109.15,927.043C2269.45,926.844 1429.77,926.844 590.06,927.043C611.773,857.367 634.365,787.975 655.824,718.243C659.764,704.013 666.198,690.746 673.143,677.82Z" style="fill:rgb(196,0,12);fill-rule:nonzero;"/>
        <path id="path226" d="M496.091,1267.12C1398.42,1267.06 2300.77,1267.09 3203.12,1267.12C3219.39,1337.05 3232.2,1407.77 3247.57,1477.93C3249.95,1490.74 3253.72,1503.41 3254.26,1516.51C3077.43,1516.62 2900.64,1516.42 2723.84,1516.59L2721.91,1516.62C2711,1478.13 2696.57,1440.68 2685.06,1402.33C2673.87,1367.86 2663.21,1333.13 2650.62,1299.15C2649.77,1323.41 2651.05,1347.73 2650.11,1372C2645.43,1394.36 2648.32,1417.32 2647.56,1440C2647.7,1465.54 2647.25,1491.08 2647.81,1516.62C2115.67,1516.48 1583.55,1516.48 1051.4,1516.62C1052.02,1475.91 1051.43,1435.21 1051.71,1394.5C1052.28,1385.01 1048.73,1375.94 1048.79,1366.47C1048.54,1344.05 1049.24,1321.6 1048.59,1299.15C1028.41,1354.37 1012.2,1410.94 993.175,1466.59C987.902,1483.26 981.496,1499.61 977.301,1516.62L975.373,1516.59C798.576,1516.42 621.78,1516.62 444.954,1516.51C446.712,1494.68 453.175,1473.53 457.228,1452.08C470.211,1390.42 481.805,1328.46 496.091,1267.12Z" style="fill:rgb(196,0,12);fill-rule:nonzero;"/>
        <path id="path228" d="M386.022,1856.69C549.383,1856.75 712.743,1856.61 876.076,1856.75C876.274,1865.45 875.254,1874.1 873.524,1882.63C862.583,1957.07 851.613,2031.51 841.578,2106.06C677.282,2106.43 512.986,2105.77 348.69,2106.37C348.35,2093.58 351.78,2081.11 353.537,2068.55C359.915,2019.88 368.362,1971.55 375.222,1922.97C378.822,1900.88 381.005,1878.52 386.022,1856.69Z" style="fill:rgb(196,0,12);fill-rule:nonzero;"/>
        <path id="path230" d="M1060.19,1856.72C1586.47,1856.69 2112.75,1856.69 2639.03,1856.69C2639.08,1877.47 2639.03,1898.25 2639.05,1919.06C2638.83,1935.21 2640.3,1951.57 2636.56,1967.47C2635.68,2004.24 2636.56,2041.06 2636.14,2077.85C2635.65,2087.35 2637.58,2096.7 2639.11,2106.06C2112.78,2106.2 1586.44,2106.2 1060.1,2106.06C1061.07,2098.57 1063.11,2091.2 1062.99,2083.64C1063.05,2047.63 1062.91,2011.63 1063.05,1975.63C1063.53,1966.11 1059.85,1957.04 1060.13,1947.54C1060.19,1917.27 1060.13,1887 1060.19,1856.72Z" style="fill:rgb(196,0,12);fill-rule:nonzero;"/>
        <path id="path232" d="M2823.11,1856.75C2986.47,1856.61 3149.83,1856.75 3313.19,1856.69C3319.23,1884.25 3321.98,1912.37 3326.51,1940.17C3332.21,1978.75 3338.5,2017.25 3344.06,2055.88C3345.42,2072.81 3350.61,2089.33 3350.52,2106.37C3186.23,2105.77 3021.93,2106.43 2857.64,2106.06C2849.3,2042.99 2839.72,1980.03 2830.88,1917.01C2828.49,1896.92 2823.28,1877.07 2823.11,1856.75Z" style="fill:rgb(196,0,12);fill-rule:nonzero;"/>
        <path id="path234" d="M303.902,2446.27C466.271,2446.36 628.639,2446.21 791.008,2446.36C792,2459.74 787.606,2472.66 787.918,2486.01C785.424,2508.41 783.241,2530.83 781.398,2553.28C778.337,2565.84 780.718,2578.96 777.458,2591.52C775.984,2614.03 773.405,2636.42 771.109,2658.84C771.392,2671.28 766.857,2683.3 768.387,2695.8C604.828,2695.61 441.269,2695.89 277.71,2695.66C284.712,2640.1 288.595,2584.18 294.746,2528.5C297.978,2501.12 298.743,2473.43 303.902,2446.27Z" style="fill:rgb(196,0,12);fill-rule:nonzero;"/>
        <path id="path236" d="M1026.65,2446.27C1575.3,2446.33 2123.91,2446.33 2672.56,2446.27C2682.31,2529.3 2688.86,2612.64 2698.67,2695.66C2132.62,2695.8 1566.6,2695.8 1000.55,2695.66C1010.35,2612.64 1016.9,2529.3 1026.65,2446.27Z" style="fill:rgb(196,0,12);fill-rule:nonzero;"/>
        <path id="path238" d="M2908.35,2446.36C3070.72,2446.21 3233.08,2446.36 3395.45,2446.3C3398.97,2464.07 3400.3,2482.19 3401.77,2500.24C3407.78,2556.85 3412.74,2613.51 3418.67,2670.15C3418.44,2678.77 3420.03,2687.22 3421.64,2695.66C3258.09,2695.89 3094.53,2695.61 2930.97,2695.8C2931.73,2687.07 2930.51,2678.46 2928.87,2669.95C2927.37,2643.7 2923.34,2617.74 2921.9,2591.52C2918.61,2578.17 2920.93,2564.25 2917.59,2550.9C2915.41,2515.95 2910.1,2481.28 2908.35,2446.36Z" style="fill:rgb(196,0,12);fill-rule:nonzero;"/>
        <path id="path240" d="M967.181,3035.91C1555.45,3035.98 2143.76,3035.98 2732.03,3035.91C2736.68,3083.84 2739.66,3131.97 2742.95,3180.06C2742.21,3196.83 2729.57,3205.53 2718.62,3204.51C2138.34,3308.22 1558.06,3308.49 977.811,3204.4C967.578,3204.4 956.948,3195.18 956.268,3180.06C959.556,3131.93 962.532,3083.8 967.181,3035.9L967.181,3035.91Z" style="fill:rgb(196,0,12);fill-rule:nonzero;"/>
    </g>
    <path id="path247" d="M25.15,54.577C87.088,54.563 149.023,54.563 210.961,54.577C211.346,55.681 211.661,56.806 212.015,57.921C149.375,57.91 86.736,57.91 24.096,57.921C24.45,56.806 24.765,55.681 25.15,54.577Z" style="fill:rgb(234,179,0);fill-rule:nonzero;"/>
    <path id="path249" d="M14.278,98.057L14.447,98.057C27.49,98.065 40.531,98.051 53.571,98.063C53.362,99.217 52.921,100.317 52.566,101.434C39.596,101.373 26.626,101.408 13.657,101.417C13.897,100.305 14.19,99.192 14.278,98.057L14.278,98.057Z" style="fill:rgb(234,179,0);fill-rule:nonzero;"/>
    <path id="path251" d="M59.179,98.065C98.431,98.055 137.68,98.055 176.932,98.065C176.619,99.152 176.708,100.288 176.704,101.404L59.407,101.404C59.403,100.286 59.49,99.152 59.179,98.065Z" style="fill:rgb(234,179,0);fill-rule:nonzero;"/>
    <path id="path253" d="M182.54,98.063C195.581,98.051 208.621,98.065 221.664,98.057L221.833,98.057C221.919,99.192 222.212,100.305 222.454,101.417C211.456,101.388 200.459,101.413 189.459,101.404C187.487,101.417 185.515,101.373 183.546,101.434C183.19,100.317 182.749,99.217 182.54,98.063L182.54,98.063Z" style="fill:rgb(234,179,0);fill-rule:nonzero;"/>
    <path id="path255" d="M7.173,141.57L7.346,141.566C19.465,141.522 31.584,141.57 43.702,141.543C43.485,142.64 43.295,143.753 43.27,144.875L43.094,144.88C30.971,144.917 18.848,144.878 6.728,144.898C6.945,143.801 7.123,142.688 7.173,141.57L7.173,141.57Z" style="fill:rgb(234,179,0);fill-rule:nonzero;"/>
    <path id="path257" d="M59.821,141.543C98.644,141.553 137.467,141.553 176.29,141.543C176.265,142.67 176.644,143.763 176.487,144.901C137.532,144.89 98.579,144.89 59.624,144.901C59.467,143.763 59.846,142.67 59.821,141.543L59.821,141.543Z" style="fill:rgb(234,179,0);fill-rule:nonzero;"/>
    <path id="path259" d="M192.407,141.543C204.525,141.57 216.644,141.522 228.763,141.566L228.936,141.57C228.984,142.688 229.162,143.801 229.381,144.898C217.261,144.88 205.138,144.917 193.017,144.88L192.839,144.876C192.812,143.753 192.622,142.64 192.407,141.543L192.407,141.543Z" style="fill:rgb(234,179,0);fill-rule:nonzero;"/>
    <path id="path263" d="M55.428,185.033C97.18,185.043 138.931,185.043 180.683,185.033C180.635,186.157 181.034,187.247 180.88,188.384L55.231,188.384C55.077,187.247 55.474,186.157 55.428,185.033L55.428,185.033Z" style="fill:rgb(234,179,0);fill-rule:nonzero;"/>
    <path d="M89.618,14.41C95.016,21.911 105.702,27.017 117.988,27.017C130.274,27.017 140.96,21.911 146.358,14.41L188.292,14.406C189.034,14.546 189.711,14.91 190.431,15.14C191.309,15.505 192.264,15.727 193.065,16.26C193.732,16.952 194.079,17.881 194.608,18.673C197.337,23.392 200.093,28.097 202.807,32.824L33.304,32.824C36.326,27.57 39.383,22.334 42.425,17.09C42.709,16.555 43.125,16.078 43.721,15.888L43.721,15.888C45.082,15.384 46.423,14.79 47.821,14.406L89.618,14.41Z" style="fill:rgb(63,62,131);"/>
    <path id="path270" d="M24.096,57.921C86.736,57.91 149.375,57.91 212.015,57.921C213.382,62.213 214.764,66.499 216.086,70.805C216.539,72.628 216.824,74.491 217.29,76.312C151.133,76.316 84.978,76.316 18.821,76.312C19.287,74.491 19.57,72.628 20.025,70.805C21.347,66.499 22.729,62.211 24.096,57.921Z" style="fill:rgb(63,62,131);fill-rule:nonzero;"/>
    <path id="path272" d="M13.657,101.417C26.626,101.408 39.596,101.373 52.566,101.434C50.999,106.278 49.398,111.112 47.828,115.957C47.451,117.228 46.841,118.457 46.822,119.806C34.73,119.804 22.639,119.8 10.548,119.808C11.028,116.548 11.566,113.297 12.022,110.033C12.4,107.131 13.123,104.292 13.657,101.417L13.657,101.417Z" style="fill:rgb(63,62,131);fill-rule:nonzero;"/>
    <path id="path274" d="M59.407,101.404L176.704,101.404C176.706,103.637 176.7,105.87 176.708,108.103C176.74,108.873 176.46,109.613 176.491,110.385C176.497,113.523 176.497,116.663 176.493,119.802C137.534,119.806 98.577,119.806 59.618,119.802C59.614,116.663 59.614,113.525 59.62,110.387C59.649,109.615 59.369,108.873 59.403,108.103C59.411,105.87 59.405,103.637 59.407,101.404L59.407,101.404Z" style="fill:rgb(63,62,131);fill-rule:nonzero;"/>
    <path id="path276" d="M183.546,101.434C185.515,101.373 187.487,101.417 189.458,101.404C200.459,101.413 211.456,101.388 222.454,101.417C222.91,103.874 223.504,106.303 223.908,108.772C224.422,112.457 225.014,116.13 225.564,119.808C213.472,119.8 201.381,119.804 189.289,119.806C189.27,118.457 188.66,117.228 188.283,115.959C186.713,111.114 185.112,106.28 183.546,101.434L183.546,101.434Z" style="fill:rgb(63,62,131);fill-rule:nonzero;"/>
    <path id="path278" d="M6.728,144.898C18.848,144.877 30.971,144.917 43.094,144.88C43.004,147.058 42.538,149.208 42.26,151.372C41.666,155.342 41.114,159.321 40.545,163.294C28.475,163.296 16.402,163.286 4.329,163.3C4.699,157.12 5.918,151.031 6.728,144.899L6.728,144.898Z" style="fill:rgb(63,62,131);fill-rule:nonzero;"/>
    <path id="path280" d="M59.43,144.903L59.624,144.901C98.579,144.89 137.532,144.89 176.487,144.901L176.681,144.903C176.663,146.387 176.899,147.855 177.066,149.327C177.436,153.987 178.088,158.627 178.385,163.29C138.165,163.296 97.946,163.296 57.726,163.29C57.824,160.841 58.202,158.414 58.378,155.97C58.744,153.009 58.959,150.038 59.3,147.077C59.442,146.36 59.407,145.628 59.43,144.903L59.43,144.903Z" style="fill:rgb(63,62,131);fill-rule:nonzero;"/>
    <path id="path282" d="M193.013,144.88C205.134,144.917 217.257,144.88 229.377,144.898C230.186,151.031 231.405,157.119 231.775,163.3C219.703,163.285 207.63,163.296 195.56,163.294C194.863,158.412 194.18,153.525 193.437,148.647C193.306,147.391 192.996,146.147 193.013,144.88L193.013,144.88Z" style="fill:rgb(63,62,131);fill-rule:nonzero;"/>
    <path id="path286" d="M55.031,188.384L181.08,188.384C181.181,191.734 181.764,195.052 181.973,198.399C182.228,200.072 182.301,201.766 182.534,203.443C182.534,204.563 182.856,205.655 182.774,206.78C139.629,206.786 96.482,206.786 53.337,206.78C53.463,204.039 53.818,201.308 54.115,198.577C54.343,195.171 54.92,191.794 55.031,188.384L55.031,188.384Z" style="fill:rgb(63,62,131);fill-rule:nonzero;"/>
    <path id="path288" d="M198.041,185.031C210.033,185.036 222.022,185.036 234.011,185.033C234.232,185.477 234.207,185.961 234.224,186.435C234.843,191.073 235.315,195.719 235.909,200.357C223.853,207.15 211.797,200.359 199.743,200.367C199.177,195.801 198.688,191.233 198.165,186.667C198.014,186.128 198.027,185.576 198.041,185.031L198.041,185.031Z" style="fill:rgb(234,179,0);fill-rule:nonzero;"/>
    <path id="path288-78" d="M38.063,185.03C26.078,185.036 14.094,185.036 2.111,185.033C1.889,185.477 1.914,185.961 1.898,186.435C1.279,191.073 0.807,195.719 0.213,200.357C12.264,207.15 24.314,200.359 36.362,200.367C36.929,195.801 37.418,191.233 37.94,186.667C38.091,186.128 38.078,185.576 38.063,185.031L38.063,185.03Z" style="fill:rgb(234,179,0);fill-rule:nonzero;"/>
    <path d="M146.358,14.41L136.567,14.411L136.567,14.411L146.358,14.41L146.358,14.41Z" style="fill:rgb(234,179,0);"/>
    <path d="M99.322,14.411L99.322,14.411L89.618,14.41L89.618,14.41L99.322,14.411Z" style="fill:rgb(234,179,0);"/>
    <path d="M148.307,11.077L148.307,11.077L140.591,11.071L140.591,11.071L148.307,11.077Z" style="fill:rgb(234,179,0);"/>
    <path d="M95.294,11.067L87.666,11.071L87.666,11.071L95.294,11.067L95.294,11.067Z" style="fill:rgb(234,179,0);"/>
    <path d="M89.618,14.41L99.322,14.411C104.164,17.62 110.726,19.582 117.945,19.582C125.163,19.582 131.725,17.62 136.567,14.411L146.358,14.41C140.96,21.911 130.274,27.017 117.988,27.017C105.702,27.017 95.016,21.911 89.618,14.41ZM150.15,11.079C159.923,11.06 169.698,11.115 179.47,11.052C181.57,11.742 183.633,12.561 185.687,13.389C186.558,13.716 187.46,13.975 188.292,14.406L136.567,14.411C138.09,13.414 139.445,12.296 140.591,11.071L150.15,11.079ZM47.821,14.406C48.649,13.975 49.553,13.716 50.424,13.389L50.424,13.389C52.478,12.561 54.541,11.742 56.641,11.052C61.744,11.113 66.848,11.064 71.952,11.079L95.294,11.067C96.444,12.291 97.795,13.417 99.322,14.411L47.821,14.406ZM140.591,11.071C143.37,8.148 144.98,4.644 144.98,0.882L144.907,-0.108L149.763,-0.108C150.015,0.99 150.125,2.12 150.125,3.268C150.125,6.009 149.496,8.642 148.307,11.077L140.591,11.071ZM87.666,11.071C86.479,8.637 85.851,6.006 85.851,3.268C85.851,2.12 85.962,0.99 86.213,-0.108L90.982,-0.108L90.909,0.882C90.909,4.642 92.517,8.144 95.294,11.067L87.666,11.071Z" style="fill:rgb(234,179,0);"/>
</svg>
