<?xml version="1.0" encoding="UTF-8" standalone="no"?>
<svg
   xmlns:dc="http://purl.org/dc/elements/1.1/"
   xmlns:cc="http://creativecommons.org/ns#"
   xmlns:rdf="http://www.w3.org/1999/02/22-rdf-syntax-ns#"
   xmlns:svg="http://www.w3.org/2000/svg"
   xmlns="http://www.w3.org/2000/svg"
   xmlns:sodipodi="http://sodipodi.sourceforge.net/DTD/sodipodi-0.dtd"
   xmlns:inkscape="http://www.inkscape.org/namespaces/inkscape"
   width="83.610313mm"
   height="125.21922mm"
   version="1.1"
   viewBox="0 0 83.610315 125.21921"
   id="svg293"
   sodipodi:docname="logo_v7.svg"
   inkscape:version="1.0beta2 (2b71d25, 2019-12-03)">
  <defs
     id="defs297" />
  <sodipodi:namedview
     pagecolor="#ffffff"
     bordercolor="#666666"
     inkscape:document-rotation="0"
     borderopacity="1"
     objecttolerance="10"
     gridtolerance="10"
     guidetolerance="10"
     inkscape:pageopacity="0"
     inkscape:pageshadow="2"
     inkscape:window-width="1440"
     inkscape:window-height="800"
     id="namedview295"
     showgrid="false"
     inkscape:zoom="0.75937238"
     inkscape:cx="314.72729"
     inkscape:cy="212.39824"
     inkscape:window-x="0"
     inkscape:window-y="23"
     inkscape:window-maximized="0"
     inkscape:current-layer="svg293" />
  <metadata
     id="metadata202">
    <rdf:RDF>
      <cc:Work
         rdf:about="">
        <dc:format>image/svg+xml</dc:format>
        <dc:type
           rdf:resource="http://purl.org/dc/dcmitype/StillImage" />
        <dc:title />
      </cc:Work>
    </rdf:RDF>
  </metadata>
  <text
     id="text204"
     xml:space="preserve"
     style="line-height:1.25;white-space:pre;shape-inside:url(#rect26);"
     font-size="10.583px"
     font-family="sans-serif"
     fill="#000000"
     x="-61.483688"
     y="-100.95813" />
  <text
     id="text206"
     xml:space="preserve"
     style="line-height:1.25;white-space:pre;shape-inside:url(#rect32);"
     font-size="50.8px"
     font-family="OPTIAlternateOne"
     x="-61.483688"
     y="-100.95813" />
  <g
     id="g218"
     stroke-width=".26458"
     transform="translate(-61.483687,-96.724788)">
    <path
       inkscape:connector-curvature="0"
       id="path208"
       d="M 75.339,181.71 H 61.521 v 40.234 h 14.122 v -5.4356 h -8.1788 v -12.7 h 5.5372 v -5.9436 h -5.5372 v -10.77 h 7.874 z"
       style="fill:#3f3e83;fill-opacity:1"
       transform="translate(-1.125e-6)" />
    <path
       inkscape:connector-curvature="0"
       id="path210"
       d="m 88.856,194.66 c 0,3.1496 -1.4732,4.4704 -3.4036,4.4704 h -1.2192 v -12.04 h 1.2192 c 1.8796,0 3.4036,1.27 3.4036,4.5212 z m 2.7432,7.9248 c 1.9304,-1.6764 3.048,-4.5212 3.048,-8.5852 v -1.7272 c 0,-7.3152 -3.4036,-10.566 -9.1948,-10.566 h -7.1628 v 40.234 h 5.9436 v -17.374 h 1.6764 l 3.302,17.374 h 6.096 z"
       style="fill:#3f3e83;fill-opacity:1"
       transform="translate(-1.125e-6)" />
    <path
       inkscape:connector-curvature="0"
       id="path212"
       d="m 98.629,181.71 v 40.234 h 5.6896 v -22.352 l 7.4168,22.352 h 4.572 V 181.71 h -5.334 v 19.609 l -6.7056,-19.609 z"
       style="fill:#3f3e83;fill-opacity:1"
       transform="translate(-1.125e-6)" />
    <path
       inkscape:connector-curvature="0"
       id="path214"
       d="m 120.66,181.71 v 40.234 h 5.9436 V 181.71 Z"
       style="fill:#3f3e83;fill-opacity:1"
       transform="translate(-1.125e-6)" />
    <path
       inkscape:connector-curvature="0"
       id="path216"
       d="m 144.79,181.71 h -13.818 v 40.234 h 14.122 v -5.4356 h -8.1788 v -12.7 h 5.5372 v -5.9436 h -5.5372 v -10.77 h 7.874 z"
       style="fill:#3f3e83;fill-opacity:1"
       transform="translate(-1.125e-6)" />
  </g>
  <g
     fill="#c4000c"
     transform="matrix(0.073761,0,0,0.073761,-6.4816873,-4.8691205)"
     id="#c4000cff">
    <path
       inkscape:connector-curvature="0"
       id="path220"
       d="M 415.87,96.95 C 449.4,84.54 482.72,71.6 516.21,59.13 c 2.23,-0.25 4.82,-0.63 6.67,0.96 22.29,16.42 44.67,32.73 66.93,49.2 4.19,3.15 8.77,5.86 12.47,9.62 -56.76,0.21 -113.52,0.03 -170.28,0.09 -24.41,-0.07 -48.82,0.16 -73.23,-0.13 18.85,-7.79 38.2,-14.3 57.1,-21.92 z" />
    <path
       inkscape:connector-curvature="0"
       id="path222"
       d="m 780.53,60.49 c 2.48,-2.19 6.1,-1.79 9.09,-1.13 18.94,6.98 37.72,14.39 56.66,21.37 17.3,6.82 34.88,12.92 52.1,19.93 16,5.93 32.04,11.78 47.85,18.21 -46.74,0.3 -93.49,0.04 -140.23,0.13 -34.76,-0.06 -69.52,0.11 -104.28,-0.09 3.69,-3.76 8.28,-6.47 12.47,-9.63 22.07,-16.32 44.25,-32.49 66.34,-48.79 z" />
    <path
       inkscape:connector-curvature="0"
       id="path224"
       d="M 237.47,239.12 C 360.64,238.85 483.82,239.08 606.99,239 H 941 c 42.18,0.08 84.35,-0.15 126.53,0.12 5.46,9.37 7.74,20.08 11.07,30.3 6.08,19.2 12.23,38.39 18.24,57.62 -296.23,-0.07 -592.45,-0.07 -888.68,0 7.66,-24.58 15.63,-49.06 23.2,-73.66 1.39,-5.02 3.66,-9.7 6.11,-14.26 z" />
    <path
       inkscape:connector-curvature="0"
       id="path226"
       d="m 175.01,447.01 c 318.32,-0.02 636.65,-0.01 954.98,0 5.74,24.67 10.26,49.62 15.68,74.37 0.84,4.52 2.17,8.99 2.36,13.61 -62.38,0.04 -124.75,-0.03 -187.12,0.03 l -0.68,0.01 c -3.85,-13.58 -8.94,-26.79 -13,-40.32 -3.95,-12.16 -7.71,-24.41 -12.15,-36.4 -0.3,8.56 0.15,17.14 -0.18,25.7 -1.65,7.89 -0.63,15.99 -0.9,23.99 0.05,9.01 -0.11,18.02 0.09,27.03 -187.73,-0.05 -375.45,-0.05 -563.18,0 0.22,-14.36 0.01,-28.72 0.11,-43.08 0.2,-3.35 -1.05,-6.55 -1.03,-9.89 -0.09,-7.91 0.16,-15.83 -0.07,-23.75 -7.12,19.48 -12.84,39.44 -19.55,59.07 -1.86,5.88 -4.12,11.65 -5.6,17.65 l -0.68,-0.01 c -62.37,-0.06 -124.74,0.01 -187.12,-0.03 0.62,-7.7 2.9,-15.16 4.33,-22.73 4.58,-21.75 8.67,-43.61 13.71,-65.25 z" />
    <path
       inkscape:connector-curvature="0"
       id="path228"
       d="m 136.18,655 c 57.63,0.02 115.26,-0.03 172.88,0.02 0.07,3.07 -0.29,6.12 -0.9,9.13 -3.86,26.26 -7.73,52.52 -11.27,78.82 -57.96,0.13 -115.92,-0.1 -173.88,0.11 -0.12,-4.51 1.09,-8.91 1.71,-13.34 2.25,-17.17 5.23,-34.22 7.65,-51.36 1.27,-7.79 2.04,-15.68 3.81,-23.38 z" />
    <path
       inkscape:connector-curvature="0"
       id="path230"
       d="M 374.01,655.01 C 559.67,655 745.33,655 930.99,655 c 0.02,7.33 0,14.66 0.01,22 -0.08,5.7 0.44,11.47 -0.88,17.08 -0.31,12.97 0,25.96 -0.15,38.94 -0.17,3.35 0.51,6.65 1.05,9.95 -185.68,0.05 -371.36,0.05 -557.04,0 0.34,-2.64 1.06,-5.24 1.02,-7.91 0.02,-12.7 -0.03,-25.4 0.02,-38.1 0.17,-3.36 -1.13,-6.56 -1.03,-9.91 0.02,-10.68 0,-21.36 0.02,-32.04 z" />
    <path
       inkscape:connector-curvature="0"
       id="path232"
       d="m 995.93,655.02 c 57.63,-0.05 115.26,0 172.89,-0.02 2.13,9.72 3.1,19.64 4.7,29.45 2.01,13.61 4.23,27.19 6.19,40.82 0.48,5.97 2.31,11.8 2.28,17.81 -57.96,-0.21 -115.92,0.02 -173.88,-0.11 -2.94,-22.25 -6.32,-44.46 -9.44,-66.69 -0.84,-7.09 -2.68,-14.09 -2.74,-21.26 z" />
    <path
       inkscape:connector-curvature="0"
       id="path234"
       d="m 107.21,862.99 c 57.28,0.03 114.56,-0.02 171.84,0.03 0.35,4.72 -1.2,9.28 -1.09,13.99 -0.88,7.9 -1.65,15.81 -2.3,23.73 -1.08,4.43 -0.24,9.06 -1.39,13.49 -0.52,7.94 -1.43,15.84 -2.24,23.75 0.1,4.39 -1.5,8.63 -0.96,13.04 -57.7,-0.07 -115.4,0.03 -173.1,-0.05 2.47,-19.6 3.84,-39.33 6.01,-58.97 1.14,-9.66 1.41,-19.43 3.23,-29.01 z" />
    <path
       inkscape:connector-curvature="0"
       id="path236"
       d="m 362.18,862.99 c 193.55,0.02 387.09,0.02 580.64,0 3.44,29.29 5.75,58.69 9.21,87.98 -199.69,0.05 -399.37,0.05 -599.06,0 3.46,-29.29 5.77,-58.69 9.21,-87.98 z" />
    <path
       inkscape:connector-curvature="0"
       id="path238"
       d="m 1026,863.02 c 57.28,-0.05 114.56,0 171.84,-0.02 1.24,6.27 1.71,12.66 2.23,19.03 2.12,19.97 3.87,39.96 5.96,59.94 -0.08,3.04 0.48,6.02 1.05,9 -57.7,0.08 -115.4,-0.02 -173.1,0.05 0.27,-3.08 -0.16,-6.12 -0.74,-9.12 -0.53,-9.26 -1.95,-18.42 -2.46,-27.67 -1.16,-4.71 -0.34,-9.62 -1.52,-14.33 -0.77,-12.33 -2.64,-24.56 -3.26,-36.88 z" />
    <path
       inkscape:connector-curvature="0"
       id="path240"
       d="m 341.2,1070.9999 c 207.53,0.027 415.07,0.027 622.6,0 1.64,16.9099 2.69,33.8888 3.85,50.8539 -0.26,5.9178 -4.72,8.9873 -8.58,8.6278 -204.71,36.5841 -409.42,36.681 -614.12,-0.042 -3.61,0 -7.36,-3.2493 -7.6,-8.5864 1.16,-16.9789 2.21,-33.9578 3.85,-50.8538 z"
       sodipodi:nodetypes="cccccccc"
       style="stroke-width:1.17586" />
  </g>
  <path
     style="fill:#eab300;stroke-width:0.073761"
     d="m 17.788632,4.7234976 c 0.724333,-0.2920936 1.452354,-0.5812367 2.192915,-0.824648 1.800506,0.021391 3.601012,0.00443 5.401518,0.00959 4.186674,-0.00443 8.373348,0.00885 12.560023,-0.00664 l 0.05975,0.00516 c 0.520015,0.3953589 1.067322,0.7567878 1.567421,1.1772255 -7.566403,0.0059 -15.133544,0.010327 -22.699947,-0.00221 0.292093,-0.1519477 0.610741,-0.2434113 0.918324,-0.3584784 z"
     id="path243"
     inkscape:connector-curvature="0" />
  <path
     style="fill:#eab300;stroke-width:0.073761"
     d="m 45.052911,4.0308818 c 0.07302,-0.043519 0.129081,-0.1371955 0.224971,-0.1290818 2.563932,0.014752 5.127864,0.00221 7.691797,0.00664 3.447589,-0.00664 6.895916,0.012539 10.343505,-0.00959 0.74056,0.2434113 1.468581,0.5325544 2.192914,0.824648 0.307584,0.1150671 0.625494,0.2065307 0.919062,0.3584784 -7.591482,0.012539 -15.183702,0.00811 -22.774446,0.00221 0.446254,-0.3776563 0.934552,-0.7029423 1.402197,-1.053307 z"
     id="path245"
     inkscape:connector-curvature="0" />
  <path
     style="fill:#eab300;stroke-width:0.073761"
     d="m 8.8724025,19.253677 c 21.8502205,-0.0052 43.6997045,-0.0052 65.5499255,0 0.13572,0.389458 0.247099,0.786292 0.371755,1.179438 -22.098058,-0.0037 -44.195378,-0.0037 -66.293436,0 0.1246561,-0.393146 0.2360352,-0.78998 0.3717555,-1.179438 z"
     id="path247"
     inkscape:connector-curvature="0" />
  <path
     style="fill:#eab300;stroke-width:0.073761"
     d="m 5.0368305,34.592277 h 0.059746 c 4.6012111,0.003 9.2016855,-0.0022 13.8021585,0.0022 -0.07376,0.407161 -0.229397,0.795144 -0.35479,1.189028 -4.575395,-0.02139 -9.1507903,-0.0089 -13.7261851,-0.0059 0.084825,-0.392409 0.1880905,-0.784817 0.2190702,-1.185339 z"
     id="path249"
     inkscape:connector-curvature="0" />
  <path
     style="fill:#eab300;stroke-width:0.073761"
     d="m 20.877005,34.595227 c 13.847153,-0.0037 27.693568,-0.0037 41.54072,0 -0.110641,0.383557 -0.07892,0.784079 -0.0804,1.177963 h -41.37992 c -0.0015,-0.394621 0.0295,-0.794406 -0.0804,-1.177963 z"
     id="path251"
     inkscape:connector-curvature="0" />
  <path
     style="fill:#eab300;stroke-width:0.073761"
     d="m 64.395995,34.594489 c 4.600474,-0.0044 9.200947,7.38e-4 13.802159,-0.0022 h 0.05975 c 0.03024,0.400522 0.133507,0.79293 0.21907,1.185339 -3.879828,-0.01033 -7.759657,-0.0015 -11.640223,-0.0044 -0.695567,0.0044 -1.391133,-0.01106 -2.085961,0.01033 -0.125394,-0.393884 -0.28103,-0.781867 -0.354791,-1.189028 z"
     id="path253"
     inkscape:connector-curvature="0" />
  <path
     style="fill:#eab300;stroke-width:0.073761"
     d="m 2.5304317,49.942678 0.061222,-0.0015 c 4.2751876,-0.01549 8.5503743,0.0015 12.8255623,-0.0081 -0.07671,0.387246 -0.143834,0.779654 -0.152685,1.175751 l -0.06196,0.0015 c -4.276662,0.01328 -8.5533247,-7.38e-4 -12.8292498,0.0066 0.076711,-0.387245 0.1394082,-0.779653 0.1571109,-1.174275 z"
     id="path255"
     inkscape:connector-curvature="0" />
  <path
     style="fill:#eab300;stroke-width:0.073761"
     d="m 21.103451,49.933089 c 13.695943,0.0037 27.391885,0.0037 41.087828,0 -0.0089,0.397572 0.124656,0.783342 0.06933,1.184602 -13.742412,-0.0037 -27.484086,-0.0037 -41.226498,0 -0.05532,-0.40126 0.07819,-0.78703 0.06933,-1.184602 z"
     id="path257"
     inkscape:connector-curvature="0" />
  <path
     style="fill:#eab300;stroke-width:0.073761"
     d="m 67.876777,49.933089 c 4.275187,0.0096 8.550375,-0.0074 12.825562,0.0081 l 0.06122,0.0015 c 0.01696,0.394622 0.07966,0.78703 0.157111,1.174275 -4.275925,-0.0066 -8.552588,0.0066 -12.828513,-0.0066 l -0.0627,-0.0015 c -0.0096,-0.396097 -0.07671,-0.788505 -0.152685,-1.175751 z"
     id="path259"
     inkscape:connector-curvature="0" />
  <path
     style="fill:#eab300;stroke-width:0.073761"
     d="m 19.553733,65.275377 c 14.729334,0.0037 29.45793,0.0037 44.187265,0 -0.01697,0.396835 0.123918,0.781129 0.06934,1.182389 h -44.32594 c -0.05458,-0.40126 0.08556,-0.785554 0.06934,-1.182389 z"
     id="path263"
     inkscape:connector-curvature="0" />
  <path
     style="fill:#3f3e83;stroke-width:0.073761"
     d="m 15.423854,5.6049415 c 0.480185,-0.177764 0.952993,-0.3872453 1.446454,-0.5229655 7.566403,0.012539 15.133544,0.00811 22.699947,0.00221 l 0.05753,0.00664 c 0.615167,0.4683824 1.242873,0.9220125 1.869104,1.3763803 0.148259,0.1054782 0.292093,-0.048682 0.410111,-0.1283442 0.502312,-0.3835572 1.026753,-0.7368723 1.523165,-1.1285433 0.07155,-0.042781 0.127606,-0.1312945 0.220545,-0.1261313 7.590744,0.0059 15.182964,0.010327 22.774446,-0.00221 0.261852,0.04942 0.500838,0.177764 0.754575,0.2589011 0.309797,0.1290818 0.646884,0.2072684 0.929389,0.395359 0.235298,0.2441489 0.357741,0.5716477 0.544356,0.8512019 0.962581,1.6647858 1.934751,3.3244088 2.892169,4.9921445 H 11.749081 c 1.065847,-1.8536137 2.144233,-3.7005894 3.217455,-5.5505153 0.100315,-0.1888281 0.2471,-0.3570032 0.457318,-0.4241257 z"
     id="path268"
     inkscape:connector-curvature="0" />
  <path
     style="fill:#3f3e83;stroke-width:0.073761"
     d="m 8.500647,20.433115 c 22.098058,-0.0037 44.195378,-0.0037 66.293436,0 0.482397,1.514313 0.969958,3.026414 1.436127,4.545153 0.160061,0.643196 0.260376,1.300406 0.424863,1.942865 -23.338718,0.0015 -46.676698,0.0015 -70.015416,0 0.164487,-0.642459 0.2640644,-1.299669 0.4248634,-1.942865 0.4661695,-1.518739 0.9537297,-3.031577 1.4361266,-4.545153 z"
     id="path270"
     inkscape:connector-curvature="0" />
  <path
     style="fill:#3f3e83;stroke-width:0.073761"
     d="m 4.8177603,35.777616 c 4.5753948,-0.003 9.1507897,-0.01549 13.7261847,0.0059 -0.55247,1.709042 -1.117479,3.414396 -1.671424,5.123439 -0.13277,0.448467 -0.348152,0.882181 -0.354791,1.35794 -4.265599,-7.38e-4 -8.5311972,-0.0022 -12.7967958,7.37e-4 0.1696503,-1.149934 0.3592161,-2.296917 0.5200151,-3.448326 0.1335074,-1.023803 0.3887204,-2.025477 0.576811,-3.039691 z"
     id="path272"
     inkscape:connector-curvature="0" />
  <path
     style="fill:#3f3e83;stroke-width:0.073761"
     d="m 20.957405,35.77319 h 41.379921 c 7.37e-4,0.787768 -0.0015,1.575535 0.0015,2.363303 0.01106,0.27144 -0.08778,0.532554 -0.07671,0.804732 0.0022,1.107153 0.0022,2.215043 7.38e-4,3.322196 -13.743887,0.0015 -27.487037,0.0015 -41.230924,0 -0.0015,-1.107153 -0.0015,-2.214306 7.38e-4,-3.321458 0.01033,-0.272178 -0.08851,-0.53403 -0.07671,-0.80547 0.003,-0.787768 7.38e-4,-1.575535 0.0015,-2.363303 z"
     id="path274"
     inkscape:connector-curvature="0" />
  <path
     style="fill:#3f3e83;stroke-width:0.073761"
     d="m 64.750786,35.783517 c 0.694828,-0.02139 1.390394,-0.0059 2.085961,-0.01033 3.880566,0.003 7.760395,-0.0059 11.640223,0.0044 0.160799,0.866692 0.37028,1.723794 0.512639,2.594912 0.181452,1.299669 0.390196,2.595649 0.584187,3.893105 -4.265598,-0.003 -8.531197,-0.0015 -12.796796,-7.37e-4 -0.0066,-0.475759 -0.22202,-0.909473 -0.35479,-1.357203 -0.553945,-1.709042 -1.118954,-3.414396 -1.671424,-5.124176 z"
     id="path276"
     inkscape:connector-curvature="0" />
  <path
     style="fill:#3f3e83;stroke-width:0.073761"
     d="m 2.3733207,51.116953 c 4.2759252,-0.0074 8.5525883,0.0066 12.8292503,-0.0066 -0.03172,0.76859 -0.196204,1.526853 -0.294306,2.290279 -0.209481,1.400721 -0.40421,2.804393 -0.60484,4.205852 -4.258223,7.38e-4 -8.5171828,-0.0029 -12.7761429,0.0022 0.130557,-2.180375 0.5605836,-4.328295 0.8460386,-6.491706 z"
     id="path278"
     inkscape:connector-curvature="0" />
  <path
     style="fill:#3f3e83;stroke-width:0.073761"
     d="m 20.965518,51.118429 0.0686,-7.38e-4 c 13.742412,-0.0037 27.484086,-0.0037 41.226498,0 l 0.0686,7.38e-4 c -0.0066,0.523703 0.07671,1.041505 0.13572,1.560782 0.130557,1.644133 0.360692,3.28089 0.465432,4.92576 -14.188666,0.0022 -28.377332,0.0022 -42.565998,0 0.03467,-0.863741 0.168175,-1.720107 0.230135,-2.582373 0.129081,-1.044455 0.205055,-2.092599 0.325286,-3.137055 0.05016,-0.253 0.03762,-0.511164 0.04573,-0.767114 z"
     id="path280"
     inkscape:connector-curvature="0" />
  <path
     style="fill:#3f3e83;stroke-width:0.073761"
     d="m 68.090684,51.110315 c 4.275925,0.01328 8.552588,0 12.828513,0.0066 0.285455,2.163411 0.715482,4.311331 0.846038,6.491706 -4.25896,-0.0052 -8.51792,-0.0015 -12.776142,-0.0022 -0.245624,-1.722319 -0.486823,-3.446114 -0.748674,-5.166958 -0.04647,-0.443303 -0.155636,-0.882181 -0.149735,-1.329173 z"
     id="path282"
     inkscape:connector-curvature="0" />
  <path
     style="fill:#3f3e83;stroke-width:0.073761"
     d="m 19.413587,66.457766 h 0.07081 44.325935 0.07081 c 0.03541,1.181651 0.241199,2.352238 0.31496,3.533152 0.08999,0.590088 0.115805,1.187552 0.197679,1.779115 0,0.395359 0.113592,0.780392 0.08483,1.177226 -15.220583,0.0022 -30.441903,0.0022 -45.662485,0 0.04426,-0.967007 0.16965,-1.930325 0.274391,-2.893644 0.0804,-1.201567 0.28398,-2.392807 0.323073,-3.595849 z"
     id="path286"
     inkscape:connector-curvature="0" />
  <path
     style="fill:#eab300;fill-opacity:1;stroke-width:0.0673302"
     sodipodi:nodetypes="ccccccc"
     d="m 69.864636,65.274787 c 4.230193,0.0018 8.459649,0.0018 12.689105,5.9e-4 0.07819,0.156724 0.06934,0.327582 0.07524,0.494753 0.218332,1.636067 0.385032,3.275209 0.594513,4.911279 -4.253059,2.396466 -8.506118,7.38e-4 -12.75844,0.0037 -0.199892,-1.610874 -0.372493,-3.222356 -0.556895,-4.833225 -0.05311,-0.189911 -0.04868,-0.384739 -0.04352,-0.577109 z"
     id="path288"
     inkscape:connector-curvature="0" />
  <path
     inkscape:connector-curvature="0"
     id="path288-78"
     d="m 13.427942,65.274639 c -4.2282458,0.0018 -8.455755,0.0018 -12.68326413,7.38e-4 -0.0781507,0.15672 -0.0693034,0.32758 -0.0752016,0.494751 -0.21823205,1.636071 -0.3848552,3.27521 -0.59424003,4.911281 4.25110166,2.396465 8.50220336,7.37e-4 12.75256776,0.0037 0.1998,-1.610874 0.372321,-3.22236 0.556639,-4.833227 0.05308,-0.189912 0.04866,-0.384737 0.0435,-0.577106 z"
     sodipodi:nodetypes="ccccccc"
     style="fill:#eab300;fill-opacity:1;stroke-width:0.0673146" />
  <ellipse
     cx="41.623585"
     cy="1.1528368"
     rx="11.337238"
     ry="8.3781099"
     id="path560"
     style="fill:#eab300;fill-opacity:1;stroke-width:0.328898" />
  <ellipse
     style="fill:#ffffff;stroke-width:0.267679"
     id="path560-2"
     ry="6.5967283"
     rx="9.5373878"
     cy="0.31122589"
     cx="41.608234" />
  <rect
     style="fill:#ffffff;fill-opacity:1;stroke-width:0.166089"
     id="rect1591"
     width="22.636971"
     height="7.6090364"
     x="30.356472"
     y="-7.6469827" />
</svg>
