<?xml version="1.0" encoding="UTF-8" standalone="no"?>
<svg
   xmlns:dc="http://purl.org/dc/elements/1.1/"
   xmlns:cc="http://creativecommons.org/ns#"
   xmlns:rdf="http://www.w3.org/1999/02/22-rdf-syntax-ns#"
   xmlns:svg="http://www.w3.org/2000/svg"
   xmlns="http://www.w3.org/2000/svg"
   xmlns:sodipodi="http://sodipodi.sourceforge.net/DTD/sodipodi-0.dtd"
   xmlns:inkscape="http://www.inkscape.org/namespaces/inkscape"
   inkscape:version="1.0beta2 (2b71d25, 2019-12-03)"
   sodipodi:docname="logo_v4.svg"
   id="svg293"
   viewBox="0 0 83.610315 125.21921"
   version="1.1"
   height="125.21922mm"
   width="83.610313mm">
  <defs
     id="defs297" />
  <sodipodi:namedview
     inkscape:current-layer="g218"
     inkscape:window-maximized="0"
     inkscape:window-y="23"
     inkscape:window-x="0"
     inkscape:cy="202.11978"
     inkscape:cx="232.08683"
     inkscape:zoom="0.93922828"
     showgrid="false"
     id="namedview295"
     inkscape:window-height="800"
     inkscape:window-width="1440"
     inkscape:pageshadow="2"
     inkscape:pageopacity="0"
     guidetolerance="10"
     gridtolerance="10"
     objecttolerance="10"
     borderopacity="1"
     inkscape:document-rotation="0"
     bordercolor="#666666"
     pagecolor="#ffffff" />
  <metadata
     id="metadata202">
    <rdf:RDF>
      <cc:Work
         rdf:about="">
        <dc:format>image/svg+xml</dc:format>
        <dc:type
           rdf:resource="http://purl.org/dc/dcmitype/StillImage" />
        <dc:title></dc:title>
      </cc:Work>
    </rdf:RDF>
  </metadata>
  <text
     y="-100.42896"
     x="-61.483688"
     fill="#000000"
     font-family="sans-serif"
     font-size="10.583px"
     style="line-height:1.25;white-space:pre;shape-inside:url(#rect26);"
     xml:space="preserve"
     id="text204" />
  <text
     y="-100.42896"
     x="-61.483688"
     font-family="OPTIAlternateOne"
     font-size="50.8px"
     style="line-height:1.25;white-space:pre;shape-inside:url(#rect32);"
     xml:space="preserve"
     id="text206" />
  <g
     transform="translate(-61.483687,-96.724788)"
     stroke-width=".26458"
     id="g218">
    <path
       transform="translate(-1.125e-6)"
       style="fill:#3f3e83;fill-opacity:1"
       d="M 75.339,181.71 H 61.521 v 40.234 h 14.122 v -5.4356 h -8.1788 v -12.7 h 5.5372 v -5.9436 h -5.5372 v -10.77 h 7.874 z"
       id="path208"
       inkscape:connector-curvature="0" />
    <path
       transform="translate(-1.125e-6)"
       style="fill:#3f3e83;fill-opacity:1"
       d="m 88.856,194.66 c 0,3.1496 -1.4732,4.4704 -3.4036,4.4704 h -1.2192 v -12.04 h 1.2192 c 1.8796,0 3.4036,1.27 3.4036,4.5212 z m 2.7432,7.9248 c 1.9304,-1.6764 3.048,-4.5212 3.048,-8.5852 v -1.7272 c 0,-7.3152 -3.4036,-10.566 -9.1948,-10.566 h -7.1628 v 40.234 h 5.9436 v -17.374 h 1.6764 l 3.302,17.374 h 6.096 z"
       id="path210"
       inkscape:connector-curvature="0" />
    <path
       transform="translate(-1.125e-6)"
       style="fill:#3f3e83;fill-opacity:1"
       d="m 98.629,181.71 v 40.234 h 5.6896 v -22.352 l 7.4168,22.352 h 4.572 V 181.71 h -5.334 v 19.609 l -6.7056,-19.609 z"
       id="path212"
       inkscape:connector-curvature="0" />
    <path
       transform="translate(-1.125e-6)"
       style="fill:#3f3e83;fill-opacity:1"
       d="m 120.66,181.71 v 40.234 h 5.9436 V 181.71 Z"
       id="path214"
       inkscape:connector-curvature="0" />
    <path
       transform="translate(-1.125e-6)"
       style="fill:#3f3e83;fill-opacity:1"
       d="m 144.79,181.71 h -13.818 v 40.234 h 14.122 v -5.4356 h -8.1788 v -12.7 h 5.5372 v -5.9436 h -5.5372 v -10.77 h 7.874 z"
       id="path216"
       inkscape:connector-curvature="0" />
  </g>
  <g
     id="#c4000cff"
     transform="matrix(0.073761,0,0,0.073761,-6.4816873,-4.3399538)"
     fill="#c4000c">
    <path
       d="M 415.87,96.95 C 449.4,84.54 482.72,71.6 516.21,59.13 c 2.23,-0.25 4.82,-0.63 6.67,0.96 22.29,16.42 44.67,32.73 66.93,49.2 4.19,3.15 8.77,5.86 12.47,9.62 -56.76,0.21 -113.52,0.03 -170.28,0.09 -24.41,-0.07 -48.82,0.16 -73.23,-0.13 18.85,-7.79 38.2,-14.3 57.1,-21.92 z"
       id="path220"
       inkscape:connector-curvature="0" />
    <path
       d="m 780.53,60.49 c 2.48,-2.19 6.1,-1.79 9.09,-1.13 18.94,6.98 37.72,14.39 56.66,21.37 17.3,6.82 34.88,12.92 52.1,19.93 16,5.93 32.04,11.78 47.85,18.21 -46.74,0.3 -93.49,0.04 -140.23,0.13 -34.76,-0.06 -69.52,0.11 -104.28,-0.09 3.69,-3.76 8.28,-6.47 12.47,-9.63 22.07,-16.32 44.25,-32.49 66.34,-48.79 z"
       id="path222"
       inkscape:connector-curvature="0" />
    <path
       d="M 237.47,239.12 C 360.64,238.85 483.82,239.08 606.99,239 H 941 c 42.18,0.08 84.35,-0.15 126.53,0.12 5.46,9.37 7.74,20.08 11.07,30.3 6.08,19.2 12.23,38.39 18.24,57.62 -296.23,-0.07 -592.45,-0.07 -888.68,0 7.66,-24.58 15.63,-49.06 23.2,-73.66 1.39,-5.02 3.66,-9.7 6.11,-14.26 z"
       id="path224"
       inkscape:connector-curvature="0" />
    <path
       d="m 175.01,447.01 c 318.32,-0.02 636.65,-0.01 954.98,0 5.74,24.67 10.26,49.62 15.68,74.37 0.84,4.52 2.17,8.99 2.36,13.61 -62.38,0.04 -124.75,-0.03 -187.12,0.03 l -0.68,0.01 c -3.85,-13.58 -8.94,-26.79 -13,-40.32 -3.95,-12.16 -7.71,-24.41 -12.15,-36.4 -0.3,8.56 0.15,17.14 -0.18,25.7 -1.65,7.89 -0.63,15.99 -0.9,23.99 0.05,9.01 -0.11,18.02 0.09,27.03 -187.73,-0.05 -375.45,-0.05 -563.18,0 0.22,-14.36 0.01,-28.72 0.11,-43.08 0.2,-3.35 -1.05,-6.55 -1.03,-9.89 -0.09,-7.91 0.16,-15.83 -0.07,-23.75 -7.12,19.48 -12.84,39.44 -19.55,59.07 -1.86,5.88 -4.12,11.65 -5.6,17.65 l -0.68,-0.01 c -62.37,-0.06 -124.74,0.01 -187.12,-0.03 0.62,-7.7 2.9,-15.16 4.33,-22.73 4.58,-21.75 8.67,-43.61 13.71,-65.25 z"
       id="path226"
       inkscape:connector-curvature="0" />
    <path
       d="m 136.18,655 c 57.63,0.02 115.26,-0.03 172.88,0.02 0.07,3.07 -0.29,6.12 -0.9,9.13 -3.86,26.26 -7.73,52.52 -11.27,78.82 -57.96,0.13 -115.92,-0.1 -173.88,0.11 -0.12,-4.51 1.09,-8.91 1.71,-13.34 2.25,-17.17 5.23,-34.22 7.65,-51.36 1.27,-7.79 2.04,-15.68 3.81,-23.38 z"
       id="path228"
       inkscape:connector-curvature="0" />
    <path
       d="M 374.01,655.01 C 559.67,655 745.33,655 930.99,655 c 0.02,7.33 0,14.66 0.01,22 -0.08,5.7 0.44,11.47 -0.88,17.08 -0.31,12.97 0,25.96 -0.15,38.94 -0.17,3.35 0.51,6.65 1.05,9.95 -185.68,0.05 -371.36,0.05 -557.04,0 0.34,-2.64 1.06,-5.24 1.02,-7.91 0.02,-12.7 -0.03,-25.4 0.02,-38.1 0.17,-3.36 -1.13,-6.56 -1.03,-9.91 0.02,-10.68 0,-21.36 0.02,-32.04 z"
       id="path230"
       inkscape:connector-curvature="0" />
    <path
       d="m 995.93,655.02 c 57.63,-0.05 115.26,0 172.89,-0.02 2.13,9.72 3.1,19.64 4.7,29.45 2.01,13.61 4.23,27.19 6.19,40.82 0.48,5.97 2.31,11.8 2.28,17.81 -57.96,-0.21 -115.92,0.02 -173.88,-0.11 -2.94,-22.25 -6.32,-44.46 -9.44,-66.69 -0.84,-7.09 -2.68,-14.09 -2.74,-21.26 z"
       id="path232"
       inkscape:connector-curvature="0" />
    <path
       d="m 107.21,862.99 c 57.28,0.03 114.56,-0.02 171.84,0.03 0.35,4.72 -1.2,9.28 -1.09,13.99 -0.88,7.9 -1.65,15.81 -2.3,23.73 -1.08,4.43 -0.24,9.06 -1.39,13.49 -0.52,7.94 -1.43,15.84 -2.24,23.75 0.1,4.39 -1.5,8.63 -0.96,13.04 -57.7,-0.07 -115.4,0.03 -173.1,-0.05 2.47,-19.6 3.84,-39.33 6.01,-58.97 1.14,-9.66 1.41,-19.43 3.23,-29.01 z"
       id="path234"
       inkscape:connector-curvature="0" />
    <path
       d="m 362.18,862.99 c 193.55,0.02 387.09,0.02 580.64,0 3.44,29.29 5.75,58.69 9.21,87.98 -199.69,0.05 -399.37,0.05 -599.06,0 3.46,-29.29 5.77,-58.69 9.21,-87.98 z"
       id="path236"
       inkscape:connector-curvature="0" />
    <path
       d="m 1026,863.02 c 57.28,-0.05 114.56,0 171.84,-0.02 1.24,6.27 1.71,12.66 2.23,19.03 2.12,19.97 3.87,39.96 5.96,59.94 -0.08,3.04 0.48,6.02 1.05,9 -57.7,0.08 -115.4,-0.02 -173.1,0.05 0.27,-3.08 -0.16,-6.12 -0.74,-9.12 -0.53,-9.26 -1.95,-18.42 -2.46,-27.67 -1.16,-4.71 -0.34,-9.62 -1.52,-14.33 -0.77,-12.33 -2.64,-24.56 -3.26,-36.88 z"
       id="path238"
       inkscape:connector-curvature="0" />
    <path
       style="stroke-width:1.17586"
       sodipodi:nodetypes="cccccccc"
       d="m 341.2,1070.9999 c 207.53,0.027 415.07,0.027 622.6,0 1.64,16.9099 2.69,33.8888 3.85,50.8539 -0.26,5.9178 -4.72,8.9873 -8.58,8.6278 -204.71,36.5841 -409.42,36.681 -614.12,-0.042 -3.61,0 -7.36,-3.2493 -7.6,-8.5864 1.16,-16.9789 2.21,-33.9578 3.85,-50.8538 z"
       id="path240"
       inkscape:connector-curvature="0" />
  </g>
  <g
     id="#eab300ff"
     transform="matrix(0.073761,0,0,0.073761,-6.4816873,-4.3399538)"
     fill="#eab300">
    <path
       d="m 329.04,130.05 c 9.82,-3.96 19.69,-7.88 29.73,-11.18 24.41,0.29 48.82,0.06 73.23,0.13 56.76,-0.06 113.52,0.12 170.28,-0.09 l 0.81,0.07 c 7.05,5.36 14.47,10.26 21.25,15.96 -102.58,0.08 -205.17,0.14 -307.75,-0.03 3.96,-2.06 8.28,-3.3 12.45,-4.86 z"
       id="path243"
       inkscape:connector-curvature="0" />
    <path
       d="m 698.67,120.66 c 0.99,-0.59 1.75,-1.86 3.05,-1.75 34.76,0.2 69.52,0.03 104.28,0.09 46.74,-0.09 93.49,0.17 140.23,-0.13 10.04,3.3 19.91,7.22 29.73,11.18 4.17,1.56 8.48,2.8 12.46,4.86 -102.92,0.17 -205.85,0.11 -308.76,0.03 6.05,-5.12 12.67,-9.53 19.01,-14.28 z"
       id="path245"
       inkscape:connector-curvature="0" />
    <path
       d="m 208.16,327.04 c 296.23,-0.07 592.45,-0.07 888.68,0 1.84,5.28 3.35,10.66 5.04,15.99 -299.59,-0.05 -599.17,-0.05 -898.76,0 1.69,-5.33 3.2,-10.71 5.04,-15.99 z"
       id="path247"
       inkscape:connector-curvature="0" />
    <path
       d="m 156.16,534.99 h 0.81 c 62.38,0.04 124.75,-0.03 187.12,0.03 -1,5.52 -3.11,10.78 -4.81,16.12 -62.03,-0.29 -124.06,-0.12 -186.09,-0.08 1.15,-5.32 2.55,-10.64 2.97,-16.07 z"
       id="path249"
       inkscape:connector-curvature="0" />
    <path
       d="m 370.91,535.03 c 187.73,-0.05 375.45,-0.05 563.18,0 -1.5,5.2 -1.07,10.63 -1.09,15.97 H 372 c -0.02,-5.35 0.4,-10.77 -1.09,-15.97 z"
       id="path251"
       inkscape:connector-curvature="0" />
    <path
       d="m 960.91,535.02 c 62.37,-0.06 124.74,0.01 187.12,-0.03 h 0.81 c 0.41,5.43 1.81,10.75 2.97,16.07 -52.6,-0.14 -105.2,-0.02 -157.81,-0.06 -9.43,0.06 -18.86,-0.15 -28.28,0.14 -1.7,-5.34 -3.81,-10.6 -4.81,-16.12 z"
       id="path253"
       inkscape:connector-curvature="0" />
    <path
       d="m 122.18,743.1 0.83,-0.02 c 57.96,-0.21 115.92,0.02 173.88,-0.11 -1.04,5.25 -1.95,10.57 -2.07,15.94 l -0.84,0.02 c -57.98,0.18 -115.96,-0.01 -173.93,0.09 1.04,-5.25 1.89,-10.57 2.13,-15.92 z"
       id="path255"
       inkscape:connector-curvature="0" />
    <path
       d="m 373.98,742.97 c 185.68,0.05 371.36,0.05 557.04,0 -0.12,5.39 1.69,10.62 0.94,16.06 -186.31,-0.05 -372.61,-0.05 -558.92,0 -0.75,-5.44 1.06,-10.67 0.94,-16.06 z"
       id="path257"
       inkscape:connector-curvature="0" />
    <path
       d="m 1008.1,742.97 c 57.96,0.13 115.92,-0.1 173.88,0.11 l 0.83,0.02 c 0.23,5.35 1.08,10.67 2.13,15.92 -57.97,-0.09 -115.95,0.09 -173.92,-0.09 l -0.85,-0.02 c -0.13,-5.37 -1.04,-10.69 -2.07,-15.94 z"
       id="path259"
       inkscape:connector-curvature="0" />
    <path
       d="m 97.97,950.97 c 57.7,0.08 115.4,-0.02 173.1,0.05 -1.79,5.2 -0.15,10.84 -2.09,15.96 -57.35,0.03 -114.69,0.03 -172.03,0.01 -0.57,-5.43 1.43,-10.62 1.02,-16.02 z"
       id="path261"
       inkscape:connector-curvature="0" />
    <path
       d="m 352.97,950.97 c 199.69,0.05 399.37,0.05 599.06,0 -0.23,5.38 1.68,10.59 0.94,16.03 H 352.03 c -0.74,-5.44 1.16,-10.65 0.94,-16.03 z"
       id="path263"
       inkscape:connector-curvature="0" />
    <path
       d="m 1033.9,951.02 c 57.7,-0.07 115.4,0.03 173.1,-0.05 -0.42,5.4 1.59,10.59 1.02,16.02 -57.34,0.02 -114.68,0.02 -172.03,-0.01 -1.94,-5.12 -0.31,-10.76 -2.09,-15.96 z"
       id="path265"
       inkscape:connector-curvature="0" />
  </g>
  <g
     id="#3f3e83ff"
     transform="matrix(0.073761,0,0,0.073761,-6.4816873,-4.3399538)"
     fill="#3f3e83">
    <path
       d="m 296.98,142 c 6.51,-2.41 12.92,-5.25 19.61,-7.09 102.58,0.17 205.17,0.11 307.75,0.03 l 0.78,0.09 c 8.34,6.35 16.85,12.5 25.34,18.66 2.01,1.43 3.96,-0.66 5.56,-1.74 6.81,-5.2 13.92,-9.99 20.65,-15.3 0.97,-0.58 1.73,-1.78 2.99,-1.71 102.91,0.08 205.84,0.14 308.76,-0.03 3.55,0.67 6.79,2.41 10.23,3.51 4.2,1.75 8.77,2.81 12.6,5.36 3.19,3.31 4.85,7.75 7.38,11.54 13.05,22.57 26.23,45.07 39.21,67.68 H 247.16 c 14.45,-25.13 29.07,-50.17 43.62,-75.25 1.36,-2.56 3.35,-4.84 6.2,-5.75 z"
       id="path268"
       inkscape:connector-curvature="0" />
    <path
       d="m 203.12,343.03 c 299.59,-0.05 599.17,-0.05 898.76,0 6.54,20.53 13.15,41.03 19.47,61.62 2.17,8.72 3.53,17.63 5.76,26.34 -316.41,0.02 -632.81,0.02 -949.22,0 2.23,-8.71 3.58,-17.62 5.76,-26.34 6.32,-20.59 12.93,-41.1 19.47,-61.62 z"
       id="path270"
       inkscape:connector-curvature="0" />
    <path
       d="m 153.19,551.06 c 62.03,-0.04 124.06,-0.21 186.09,0.08 -7.49,23.17 -15.15,46.29 -22.66,69.46 -1.8,6.08 -4.72,11.96 -4.81,18.41 -57.83,-0.01 -115.66,-0.03 -173.49,0.01 2.3,-15.59 4.87,-31.14 7.05,-46.75 1.81,-13.88 5.27,-27.46 7.82,-41.21 z"
       id="path272"
       inkscape:connector-curvature="0" />
    <path
       d="m 372,551 h 561 c 0.01,10.68 -0.02,21.36 0.02,32.04 0.15,3.68 -1.19,7.22 -1.04,10.91 0.03,15.01 0.03,30.03 0.01,45.04 -186.33,0.02 -372.65,0.02 -558.98,0 -0.02,-15.01 -0.02,-30.02 0.01,-45.03 0.14,-3.69 -1.2,-7.24 -1.04,-10.92 0.04,-10.68 0.01,-21.36 0.02,-32.04 z"
       id="path274"
       inkscape:connector-curvature="0" />
    <path
       d="m 965.72,551.14 c 9.42,-0.29 18.85,-0.08 28.28,-0.14 52.61,0.04 105.21,-0.08 157.81,0.06 2.18,11.75 5.02,23.37 6.95,35.18 2.46,17.62 5.29,35.19 7.92,52.78 -57.83,-0.04 -115.66,-0.02 -173.49,-0.01 -0.09,-6.45 -3.01,-12.33 -4.81,-18.4 -7.51,-23.17 -15.17,-46.29 -22.66,-69.47 z"
       id="path276"
       inkscape:connector-curvature="0" />
    <path
       d="m 120.05,759.02 c 57.97,-0.1 115.95,0.09 173.93,-0.09 -0.43,10.42 -2.66,20.7 -3.99,31.05 -2.84,18.99 -5.48,38.02 -8.2,57.02 -57.73,0.01 -115.47,-0.04 -173.21,0.03 1.77,-29.56 7.6,-58.68 11.47,-88.01 z"
       id="path278"
       inkscape:connector-curvature="0" />
    <path
       d="m 372.11,759.04 0.93,-0.01 c 186.31,-0.05 372.61,-0.05 558.92,0 l 0.93,0.01 c -0.09,7.1 1.04,14.12 1.84,21.16 1.77,22.29 4.89,44.48 6.31,66.78 -192.36,0.03 -384.72,0.03 -577.08,0 0.47,-11.71 2.28,-23.32 3.12,-35.01 1.75,-14.16 2.78,-28.37 4.41,-42.53 0.68,-3.43 0.51,-6.93 0.62,-10.4 z"
       id="path280"
       inkscape:connector-curvature="0" />
    <path
       d="m 1011,758.93 c 57.97,0.18 115.95,0 173.92,0.09 3.87,29.33 9.7,58.45 11.47,88.01 -57.74,-0.07 -115.48,-0.02 -173.21,-0.03 -3.33,-23.35 -6.6,-46.72 -10.15,-70.05 -0.63,-6.01 -2.11,-11.96 -2.03,-18.02 z"
       id="path282"
       inkscape:connector-curvature="0" />
    <path
       d="m 351.07,967 h 0.96 600.94 0.96 c 0.48,16.02 3.27,31.89 4.27,47.9 1.22,8 1.57,16.1 2.68,24.12 0,5.36 1.54,10.58 1.15,15.96 -206.35,0.03 -412.71,0.03 -619.06,0 0.6,-13.11 2.3,-26.17 3.72,-39.23 1.09,-16.29 3.85,-32.44 4.38,-48.75 z"
       id="path286"
       inkscape:connector-curvature="0" />
    <path
       style="stroke-width:0.912816"
       sodipodi:nodetypes="ccccccc"
       d="m 1036,966.98 c 57.35,0.025 114.69,0.025 172.03,0.008 1.06,2.12475 0.94,4.44113 1.02,6.70752 2.96,22.18065 5.22,44.40298 8.06,66.58368 -57.66,32.4896 -115.32,0.01 -172.97,0.05 -2.71,-21.8391 -5.05,-43.68645 -7.55,-65.52548 -0.72,-2.57469 -0.66,-5.21603 -0.59,-7.82405 z"
       id="path288"
       inkscape:connector-curvature="0" />
    <path
       inkscape:connector-curvature="0"
       id="path288-78"
       d="m 268.90082,966.98 c -57.3236,0.025 -114.63721,0.025 -171.95082,0.01 -1.059512,2.1247 -0.939567,4.4411 -1.019531,6.7075 -2.958637,22.1807 -5.217597,44.403 -8.05629,66.5837 57.633461,32.4896 115.266921,0.01 172.890391,0.05 2.70875,-21.8391 5.04767,-43.6865 7.54652,-65.5255 0.71967,-2.5747 0.6597,-5.216 0.58973,-7.824 z"
       sodipodi:nodetypes="ccccccc"
       style="stroke-width:0.912604" />
  </g>
  <ellipse
     style="fill:#ffffff;stroke-width:0.271814"
     id="path560"
     ry="6.5967283"
     rx="9.8343363"
     cy="0.96343768"
     cx="41.623066" />
</svg>
